# xmcd CD database file
#
# Track frame offsets:
#	150
#	18835
#	36331
#	48658
#	62767
#	94464
#	115858
#	137983
#	147286
#	174646
#	189593
#	201669
#	235117
#	246949
#	261318
#	292879
#	318478
#
# Disc length: 4491 seconds
#
# Revision: 2
# Processed by: cddbd v1.5.2PL0 Copyright (c) Steve Scherf et al.
# Submitted via: CDex 2.23
#
DISCID=0b118911
DTITLE=Livin 'Blues - 2014 The Golden Years of Dutch Pop Music CD2
DYEAR=2014
DGENRE=Blues
TTITLE0=Mysterious Ways
TTITLE1=Who's Doing That Voodoo
TTITLE2=Waitin'On You
TTITLE3=Black Panther
TTITLE4=I Came Home At Night
TTITLE5=When The Sun Goes Down
TTITLE6=Go-Go Train
TTITLE7=Whiskey And Gin
TTITLE8=Hitch Hikin'
TTITLE9=Keep On
TTITLE10=Bamboozle Song
TTITLE11=Black Night
TTITLE12=Shady Girl, Shady Girl
TTITLE13=Eye To Eye
TTITLE14=Diving Duck Blues
TTITLE15=You're A Stranger
TTITLE16=Ain't No Use Crying
EXTD=YEAR: 2014
EXTT0=
EXTT1=
EXTT2=
EXTT3=
EXTT4=
EXTT5=
EXTT6=
EXTT7=
EXTT8=
EXTT9=
EXTT10=
EXTT11=
EXTT12=
EXTT13=
EXTT14=
EXTT15=
EXTT16=
PLAYORDER=
